<svg xmlns="http://www.w3.org/2000/svg" width="29" height="27" viewBox="0 0 29 27">
  <g id="Grupo_4501" data-name="Grupo 4501" transform="translate(-7237 11890)">
    <g id="Retângulo_3202" data-name="Retângulo 3202" transform="translate(7237 -11890)" fill="#01982f" stroke="#01982f" stroke-width="1">
      <rect width="29" height="27" rx="5" stroke="none"/>
      <rect x="0.5" y="0.5" width="28" height="26" rx="4.5" fill="none"/>
    </g>
    <g id="Grupo_4322" data-name="Grupo 4322" transform="translate(7012.665 -12102.338)">
      <path id="Imagem2" d="M434.072,838.3a1.473,1.473,0,0,0-1.065-2.487h-.273a1.473,1.473,0,0,0-.729-2.851l-3.746.961c.415-.391.761-.761.993-1.017l3.8-1.349a.932.932,0,0,0-.623-1.756l-3.557,1.26,4.178-2.907a.933.933,0,1,0-1.034-1.555h0l-.033.022-3.641,2.538,3.069-3.515a.933.933,0,0,0-1.4-1.227l-3.285,3.78,2.233-4.188a.933.933,0,0,0-1.645-.876l-2.7,5.034a9.312,9.312,0,0,1-1.486,1.172v-.065a6.262,6.262,0,0,0-.761-4.112.874.874,0,0,0-1.443.987,4.575,4.575,0,0,1,.064,2.635,10,10,0,0,0,.173,4.512l-1.718,1.969h-1.345a.539.539,0,0,0-.539.539v4.045a.539.539,0,0,0,.539.539h2.447c1.157,1.521,4.315,1.675,5.521,1.675h.027l3.434,1.83a1.473,1.473,0,0,0,1.55-2.5l1.079.248a1.472,1.472,0,0,0,.646-2.873h.216A1.474,1.474,0,0,0,434.072,838.3Zm-5.717-.513a.542.542,0,0,0-.105,1.079l4.328.952a.4.4,0,0,1,.3.47.407.407,0,0,1-.173.246.384.384,0,0,1-.3.051l-4.968-1.108a.539.539,0,0,0-.372,1l3.336,1.767a.394.394,0,0,1-.319.72.45.45,0,0,1-.05-.027l-3.56-1.887a.543.543,0,0,0-.253-.064h0c-2.047.027-4.372-.4-4.909-1.391a.54.54,0,0,0-.475-.284h-2.206v-2.966h1.84a.538.538,0,0,0,.474-.286,8.984,8.984,0,0,1,2.966-2.889l.1-.07c1.034-.728,1.925-1.349,2.109-2.157a.334.334,0,0,1,.4-.248.317.317,0,0,1,.208.148.335.335,0,0,1,.043.253,5.744,5.744,0,0,1-2.3,3.018l-.019.041-.025.016a.539.539,0,0,0,.17.969,9.657,9.657,0,0,0,1.983.318.606.606,0,0,0,.156-.016l5.524-1.421a.39.39,0,0,1,.3.041.386.386,0,0,1,.181.24.391.391,0,0,1-.27.48l-4.586,1.182a.539.539,0,0,0,.129,1.063h.015l4.992-.119h0a.394.394,0,0,1,0,.785Z" transform="translate(-187.18 -607.534)" fill="#fff"/>
    </g>
  </g>
</svg>
