<svg xmlns="http://www.w3.org/2000/svg" xmlns:xlink="http://www.w3.org/1999/xlink" width="65" height="64" viewBox="0 0 65 64">
  <defs>
    <filter id="Retângulo_4650" x="0" y="0" width="65" height="64" filterUnits="userSpaceOnUse">
      <feOffset dy="1" input="SourceAlpha"/>
      <feGaussianBlur stdDeviation="2.5" result="blur"/>
      <feFlood flood-opacity="0.161"/>
      <feComposite operator="in" in2="blur"/>
      <feComposite in="SourceGraphic"/>
    </filter>
    <clipPath id="clip-path">
      <rect id="Retângulo_4651" data-name="Retângulo 4651" width="36" height="36" fill="#f6f6f6"/>
    </clipPath>
  </defs>
  <g id="Grupo_7708" data-name="Grupo 7708" transform="translate(7.5 6.5)">
    <g transform="matrix(1, 0, 0, 1, -7.5, -6.5)" filter="url(#Retângulo_4650)">
      <rect id="Retângulo_4650-2" data-name="Retângulo 4650" width="50" height="49" rx="10" transform="translate(7.5 6.5)" fill="#234780"/>
    </g>
    <g id="Grupo_7707" data-name="Grupo 7707" transform="translate(8 7)">
      <g id="Grupo_7706" data-name="Grupo 7706" transform="translate(0 0)" clip-path="url(#clip-path)">
        <path id="Caminho_6969" data-name="Caminho 6969" d="M17.732,0H17.68A17.735,17.735,0,0,0,0,17.7,17.739,17.739,0,0,0,17.709,35.426h.009A17.737,17.737,0,0,0,35.426,17.708,17.767,17.767,0,0,0,17.732,0M6.81,6.195A15.861,15.861,0,0,1,33.576,18,15.861,15.861,0,0,1,6.211,28.633,15.652,15.652,0,0,1,1.852,17.308,15.818,15.818,0,0,1,6.81,6.195" transform="translate(-0.212 -0.212)" fill="#f6f6f6"/>
        <path id="Caminho_6970" data-name="Caminho 6970" d="M13.874,28.553c.432.049.866.084,1.3.119.222.018.443.036.665.056l.531.047q1.574.14,3.148.285c.29.027.439.128.443.3s.011.324.017.486a5.452,5.452,0,0,1-.237,2.325c-.7,1.742-1.385,3.489-2.07,5.236q-.528,1.346-1.058,2.692a2.256,2.256,0,0,0,.286,2.362,2.223,2.223,0,0,0,1.753.865,2.288,2.288,0,0,0,2.13-1.459c.6-1.443,1.193-2.892,1.784-4.34l1.028-2.512.546,1.324q1.116,2.706,2.228,5.415a2.386,2.386,0,0,0,1.193,1.335,2.287,2.287,0,0,0,2.478-.363,2.246,2.246,0,0,0,.578-2.543l-.609-1.578c-.7-1.814-1.422-3.69-2.186-5.515a7.388,7.388,0,0,1-.611-3.361c.034-.557.11-.64.625-.685l.372-.033c1.691-.148,3.382-.3,5.072-.455a2.263,2.263,0,0,0,2.069-1.975,2.34,2.34,0,0,0-.608-1.871,2.213,2.213,0,0,0-1.765-.659c-1.816.116-3.638.293-5.023.434a43.254,43.254,0,0,1-8.7,0c-1.96-.2-3.556-.336-5.022-.435a2.192,2.192,0,0,0-2.385,2.05,2.254,2.254,0,0,0,2.028,2.451m16.37-1.569-1.912.171c-.355.029-.722.059-1.083.116a2.2,2.2,0,0,0-1.87,2.1,9.24,9.24,0,0,0,.681,4.294c.706,1.647,1.362,3.351,2,5q.393,1.022.791,2.042a1.466,1.466,0,0,1,.1.316.378.378,0,0,1-.284.447.371.371,0,0,1-.49-.216c-.128-.265-.237-.539-.347-.813l-.984-2.394q-.861-2.092-1.726-4.182a1.592,1.592,0,0,0-3.016-.017q-1.081,2.634-2.169,5.266l-.716,1.739c-.052.129-.1.258-.165.383a.4.4,0,0,1-.532.235.411.411,0,0,1-.236-.555c.078-.225.167-.444.257-.664l.126-.314q.407-1.037.81-2.074c.637-1.633,1.3-3.323,1.968-4.973a8.151,8.151,0,0,0,.339-3.836,2.051,2.051,0,0,0-1.833-1.782c-.949-.114-1.915-.2-2.849-.282q-.555-.049-1.109-.1c-.588-.055-1.176-.11-1.766-.158-.57-.046-.544-.369-.536-.475s.029-.366.521-.366l.064,0q.96.085,1.92.176c1.487.137,3.025.279,4.542.391a39.362,39.362,0,0,0,6.483-.053q2.877-.266,5.755-.512c.491-.043.527.241.54.334a.429.429,0,0,1-.076.332.478.478,0,0,1-.341.162c-.95.091-1.9.177-2.851.263" transform="translate(-6.102 -12.153)" fill="#f6f6f6"/>
        <path id="Caminho_6971" data-name="Caminho 6971" d="M31.03,15.238h.013a4.273,4.273,0,1,0-.022-8.546h-.015a4.273,4.273,0,0,0,.024,8.546m-.009-6.7a2.428,2.428,0,1,1,0,4.856h-.007a2.428,2.428,0,0,1,0-4.856Z" transform="translate(-13.523 -3.535)" fill="#f6f6f6"/>
      </g>
    </g>
  </g>
</svg>
