<svg xmlns="http://www.w3.org/2000/svg" viewBox="0 0 120.82 128.93"><defs><style>.cls-1{fill:#f2f2f2;}.cls-2{fill:#4a4a4a;}</style></defs><g id="Camada_2" data-name="Camada 2"><path id="Caminho_4026" data-name="Caminho 4026" class="cls-1" d="M225.73,200.1l-112.23-.18.16-84.82,112.2,20.14Z" transform="translate(-105.03 -71.17)"/><path class="cls-2" d="M135.35,129.6a22.54,22.54,0,0,1,5.7,5.62l6.43,9.37A1.93,1.93,0,0,0,151,143.5V84.3c0-3.57,2.57-6.45,5.67-6.28,2.92.16,5,2.74,5,6.28v24.8a1.84,1.84,0,0,0,0,.41V128.8a1.93,1.93,0,0,0,3.86,0v-15a6.14,6.14,0,0,1,5.44-3.94c2.54,0,4.8,1.86,5.76,4.74v16.76a1.93,1.93,0,0,0,3.86,0V114.3a6,6,0,0,1,5.19-3.44c2.84,0,5.3,2.32,6,5.66v18a1.93,1.93,0,0,0,3.86,0V116.88a5.69,5.69,0,0,1,4.27-2.08c3.43,0,6.22,3.39,6.22,7.56v32.8c0,8-3.83,21.28-12.35,26.38H164.15c-7.33-2-14.64-12.86-14.74-13-.3-.42-13.38-19.61-20.23-29.66a7.14,7.14,0,0,1-1.3-4.11,6,6,0,0,1,3.4-5.2,4.6,4.6,0,0,1,4.07,0ZM129.67,126a9.84,9.84,0,0,0-5.64,8.5A10.91,10.91,0,0,0,126,141l20.25,29.71h0c.34.51,8.36,12.47,17.22,14.64a1.82,1.82,0,0,0,.46.06h30.32a1.94,1.94,0,0,0,.94-.25c10.75-6,14.75-21.57,14.75-30v-32.8c0-6.3-4.52-11.42-10.08-11.42a9.18,9.18,0,0,0-5.4,1.77,9.9,9.9,0,0,0-8.74-5.71,9.49,9.49,0,0,0-7,3.21,9.7,9.7,0,0,0-7.79-4.2,9.27,9.27,0,0,0-5.4,1.79V84.3c0-5.6-3.61-9.86-8.6-10.13-5.34-.28-9.74,4.36-9.74,10.13v53l-2.88-4.2a26.1,26.1,0,0,0-7-6.84,8.13,8.13,0,0,0-3.94-1,8.68,8.68,0,0,0-3.64.81Z" transform="translate(-105.03 -71.17)"/><path class="cls-2" d="M126.77,120.51a1.9,1.9,0,0,0,1.54.81h0a1.9,1.9,0,0,0,1.54-.77l5.79-7.71a1.93,1.93,0,0,0-3.09-2.32l-2.31,3.09V73.1a1.93,1.93,0,0,0-3.86,0v40.23l-2-2.77a1.93,1.93,0,0,0-3.15,2.23l5.47,7.72Z" transform="translate(-105.03 -71.17)"/><path class="cls-2" d="M105.8,82.36a1.93,1.93,0,0,0,2.7-.39l2.32-3.09v40.51a1.93,1.93,0,1,0,3.86,0V79.16l2,2.77a1.93,1.93,0,0,0,3.15-2.23L114.32,72a1.93,1.93,0,0,0-3.11,0l-5.79,7.72a1.93,1.93,0,0,0,.38,2.7Z" transform="translate(-105.03 -71.17)"/></g></svg>