<svg id="menu" xmlns="http://www.w3.org/2000/svg" width="87.672" height="87.672" viewBox="0 0 87.672 87.672">
  <g id="Menu_Hamburguer" data-name="Menu Hamburguer" transform="translate(-865.593 -1055.593)">
    <g id="Grupo_7" data-name="Grupo 7">
      <g id="Caminho_1285-2" data-name="Caminho 1285-2">
        <path id="Caminho_3243" data-name="Caminho 3243" d="M886.381,1081.343H931.97a3.2,3.2,0,0,1,3.039,3.333v1.111a3.2,3.2,0,0,1-3.039,3.333H886.381a3.2,3.2,0,0,1-3.039-3.333v-1.111A3.2,3.2,0,0,1,886.381,1081.343Z" fill="#BCBBD8"/>
      </g>
    </g>
    <g id="Grupo_8" data-name="Grupo 8">
      <g id="Ret창ngulo_127-2" data-name="Ret창ngulo 127-2">
        <path id="Caminho_3244" data-name="Caminho 3244" d="M886.381,1095.787H931.97a3.2,3.2,0,0,1,3.039,3.333v1.111a3.2,3.2,0,0,1-3.039,3.333H886.381a3.2,3.2,0,0,1-3.039-3.333v-1.111A3.2,3.2,0,0,1,886.381,1095.787Z" fill="#BCBBD8"/>
      </g>
    </g>
    <g id="Grupo_9" data-name="Grupo 9">
      <g id="Ret창ngulo_128-2" data-name="Ret창ngulo 128-2">
        <path id="Caminho_3245" data-name="Caminho 3245" d="M886.381,1110.232H931.97a3.2,3.2,0,0,1,3.039,3.333v1.111a3.2,3.2,0,0,1-3.039,3.333H886.381a3.2,3.2,0,0,1-3.039-3.333v-1.111A3.2,3.2,0,0,1,886.381,1110.232Z" fill="#BCBBD8"/>
      </g>
    </g>
  </g>
  <g id="Caminho_145" data-name="Caminho 145" transform="translate(-865.593 -1055.593)">
    <path id="Caminho_3246" data-name="Caminho 3246" d="M909.429,1143.265a43.885,43.885,0,0,1-43.836-43.836h0a43.837,43.837,0,0,1,43.835-43.836h0a43.836,43.836,0,0,1,0,87.672Zm-40.586-43.837h3.25a37.334,37.334,0,1,0,10.936-26.4,37.378,37.378,0,0,0-10.936,26.4Z" fill="#BCBBD8"/>
  </g>
</svg>
