<?xml version="1.0" encoding="utf-8"?>
<!-- Generator: Adobe Illustrator 26.1.0, SVG Export Plug-In . SVG Version: 6.00 Build 0)  -->
<svg version="1.1" id="Camada_1" xmlns="http://www.w3.org/2000/svg" xmlns:xlink="http://www.w3.org/1999/xlink" x="0px" y="0px"
	 viewBox="0 0 102.9 36" style="enable-background:new 0 0 102.9 36;" xml:space="preserve">
<style type="text/css">
	.st0{enable-background:new    ;}
	.st1{fill:#FFFFFF;}
	.st2{fill:none;stroke:#FFFFFF;stroke-width:2;}
</style>
<g class="st0">
	<path class="st1" d="M33.6,10.7h1.8L30.3,25h-1.6l-5.1-14.3h1.8l3.3,9.2c0.4,1.1,0.7,2.1,0.9,3.1c0.2-1.1,0.5-2.1,0.9-3.2
		L33.6,10.7z"/>
	<path class="st1" d="M46.4,19.6c0,1.7-0.4,3.1-1.3,4.1s-2.1,1.5-3.6,1.5c-1,0-1.8-0.2-2.5-0.7s-1.3-1.1-1.7-1.9
		c-0.4-0.8-0.6-1.8-0.6-2.9c0-1.7,0.4-3.1,1.3-4.1c0.9-1,2.1-1.5,3.6-1.5c1.5,0,2.7,0.5,3.6,1.5C45.9,16.6,46.4,17.9,46.4,19.6z
		 M38.2,19.6c0,1.4,0.3,2.4,0.8,3.1s1.4,1.1,2.4,1.1c1.1,0,1.9-0.4,2.4-1.1c0.5-0.7,0.8-1.8,0.8-3.1c0-1.4-0.3-2.4-0.8-3.1
		c-0.6-0.7-1.4-1.1-2.4-1.1c-1.1,0-1.9,0.3-2.4,1C38.5,17.2,38.2,18.3,38.2,19.6z"/>
	<path class="st1" d="M50.8,25h-1.6V9.8h1.6V25z"/>
	<path class="st1" d="M57.7,23.9c0.3,0,0.6,0,0.8-0.1c0.3,0,0.5-0.1,0.6-0.1v1.2c-0.2,0.1-0.4,0.2-0.8,0.2s-0.6,0.1-0.9,0.1
		c-2.1,0-3.1-1.1-3.1-3.3v-6.4h-1.5v-0.8l1.5-0.7l0.7-2.3H56v2.5h3.1v1.3H56v6.3c0,0.6,0.2,1.1,0.5,1.5
		C56.8,23.7,57.2,23.9,57.7,23.9z"/>
	<path class="st1" d="M67.9,25l-0.3-1.5h-0.1c-0.5,0.7-1.1,1.1-1.6,1.4c-0.5,0.2-1.2,0.4-2,0.4c-1.1,0-1.9-0.3-2.5-0.8
		c-0.6-0.5-0.9-1.3-0.9-2.3c0-2.2,1.7-3.3,5.2-3.4l1.8-0.1v-0.7c0-0.8-0.2-1.5-0.5-1.9s-0.9-0.6-1.7-0.6c-0.9,0-1.9,0.3-3,0.8
		L61.7,15c0.5-0.3,1.1-0.5,1.7-0.7c0.6-0.2,1.3-0.2,1.9-0.2c1.3,0,2.2,0.3,2.8,0.8s0.9,1.5,0.9,2.7V25H67.9z M64.2,23.9
		c1,0,1.8-0.3,2.4-0.8s0.9-1.3,0.9-2.3v-1l-1.6,0.1c-1.3,0-2.2,0.2-2.8,0.6c-0.6,0.4-0.9,0.9-0.9,1.7c0,0.6,0.2,1,0.5,1.3
		C63.1,23.7,63.6,23.9,64.2,23.9z"/>
	<path class="st1" d="M77.3,14.1c0.5,0,0.9,0,1.3,0.1l-0.2,1.5c-0.4-0.1-0.8-0.1-1.2-0.1c-0.9,0-1.6,0.4-2.2,1.1s-0.9,1.6-0.9,2.6
		V25h-1.6V14.3h1.3l0.2,2h0.1c0.4-0.7,0.9-1.2,1.4-1.6C76,14.3,76.7,14.1,77.3,14.1z"/>
</g>
<path class="st2" d="M10,1h82.9c5,0,9,4,9,9v16c0,5-4,9-9,9H10c-5,0-9-4-9-9V10C1,5,5,1,10,1z"/>
</svg>
