<svg xmlns="http://www.w3.org/2000/svg" width="138.721" height="59.672" viewBox="0 0 138.721 59.672">
  <g id="Grupo_705" data-name="Grupo 705" transform="translate(-622.968 -5687)">
    <path id="Caminho_4708" data-name="Caminho 4708" d="M311.4,0H270.88a10.044,10.044,0,0,0-10.134,9.95V49.732a10.034,10.034,0,0,0,10.128,9.94H311.4a10.032,10.032,0,0,0,10.13-9.936V9.95A10.041,10.041,0,0,0,311.4,0M270.535,49.73h-4.723v-19.9h4.723Zm39.505-19.9H314.5l-4.016,4.022h-3.294Zm-27.5,19.826a6.007,6.007,0,0,1-2.562.441,5.163,5.163,0,0,1-3.714-1.393c-.884-.918-1.294-2.424-1.294-4.43V38.212h-2.152v-3.4h2.152V29.833h4.588v4.978h2.93v3.4h-2.93V43.5c0,1.828.38,2.827,2.016,2.827a2.87,2.87,0,0,0,.959-.131Zm16.193.073H294.89l-.518-1.549h-.051a6.152,6.152,0,0,1-4.742,1.921c-3.381,0-5.211-2.293-5.211-4.562,0-3.856,3.781-5.809,9.908-5.781V39.6c0-.7-.584-2.077-3.347-2.069a9.812,9.812,0,0,0-4.562,1.2l-.888-2.93a12.976,12.976,0,0,1,6.232-1.409c5.231,0,7.023,2.944,7.023,6.531Zm17.731,0h-3.743l-.594-2.119a6.015,6.015,0,0,1-.645.77,4.709,4.709,0,0,1-1.023.8,6.459,6.459,0,0,1-3.385.892,6.85,6.85,0,0,1-2.293-.37,4.428,4.428,0,0,1-1.786-1.167,5.62,5.62,0,0,1-1.169-2.022,8.99,8.99,0,0,1-.429-2.978V34.811h4.614V42.7c0,2.329.845,3.719,2.774,3.719a3.054,3.054,0,0,0,2.845-1.911,2.5,2.5,0,0,0,.16-.948V34.821h4.679Z" transform="translate(362.222 5687)" fill="#fff"/>
    <path id="Caminho_4709" data-name="Caminho 4709" d="M278.087,21.69c-1.818.277-3.041,1-3.041,2.4,0,1.25.894,1.915,2.192,1.915a3.283,3.283,0,0,0,3.021-1.889l.032-.075a1.07,1.07,0,0,0,.046-.16,3.4,3.4,0,0,0,.079-.75V21.555c-.321-.006-.633,0-.936.01a12.213,12.213,0,0,0-1.395.125" transform="translate(376.213 5708.354)" fill="#fff"/>
    <path id="Caminho_4710" data-name="Caminho 4710" d="M330.135,27.193a3.516,3.516,0,0,1-.081.748A1.41,1.41,0,0,1,330,28.1a.669.669,0,0,1-.03.081,3.256,3.256,0,0,1-3,1.872c-1.292,0-2.18-.657-2.18-1.9,0-1.395,1.209-2.113,3.021-2.384a11.616,11.616,0,0,1,1.387-.127c.3-.01.611-.014.928-.008Zm-2.685-9.777a12.9,12.9,0,0,0-6.194,1.4l.88,2.912a9.832,9.832,0,0,1,4.531-1.191c2.746-.008,3.328,1.361,3.328,2.058v.16c-6.084-.024-9.847,1.921-9.847,5.747,0,2.253,1.824,4.529,5.18,4.529a6.108,6.108,0,0,0,4.717-1.9h.049l.512,1.539h3.822V23.9c0-3.561-1.783-6.483-6.976-6.483" transform="translate(420.342 5704.301)" fill="#fff"/>
    <path id="Caminho_4711" data-name="Caminho 4711" d="M321.589,32.271a11.626,11.626,0,0,1-4.19.663c-4.869,0-7.981-2.9-7.981-7.564,0-4.321,3.021-7.864,8.628-7.864a11.075,11.075,0,0,1,3.573.574l-.74,3.421a6.469,6.469,0,0,0-2.617-.453,3.861,3.861,0,0,0-4.038,4.143,3.885,3.885,0,0,0,3.611,4.143,4.12,4.12,0,0,0,.518,0,7.408,7.408,0,0,0,2.681-.451Z" transform="translate(409.844 5704.394)" fill="#fff"/>
    <path id="Caminho_4712" data-name="Caminho 4712" d="M317.035,20.828h4.681V35.623h-4.681Zm4.839-4.113a2.334,2.334,0,0,1-2.364,2.3c-.055,0-.109,0-.164-.008a2.321,2.321,0,1,1-.334-4.63,2.235,2.235,0,0,1,.364,0,2.333,2.333,0,0,1,2.493,2.16c0,.055.006.113.006.17" transform="translate(417.122 5701.331)" fill="#fff"/>
    <rect id="Retângulo_2432" data-name="Retângulo 2432" width="4.681" height="21.48" transform="translate(757.008 5715.514)" fill="#fff"/>
    <path id="Caminho_4713" data-name="Caminho 4713" d="M305.721,25.2c0,2.542,1.078,4.446,3.08,4.446,1.818,0,2.989-1.787,2.989-4.446,0-2.208-.865-4.449-2.989-4.449-2.249,0-3.08,2.271-3.08,4.449m10.905-.15c0,5.415-3.911,7.894-7.945,7.894-4.41,0-7.8-2.843-7.8-7.621s3.2-7.839,8.042-7.839c4.62,0,7.7,3.122,7.7,7.566" transform="translate(401.494 5704.375)" fill="#fff"/>
    <path id="Caminho_4714" data-name="Caminho 4714" d="M294,30.695a12.238,12.238,0,0,0,5.253,1.28c2.176,0,3.326-.884,3.326-2.226,0-1.282-1-2.016-3.512-2.9-3.482-1.191-5.751-3.084-5.751-6.076,0-3.508,2.985-6.192,7.926-6.192a12.949,12.949,0,0,1,5.346,1.041l-1.057,3.751a10.091,10.091,0,0,0-4.384-.977c-2.05,0-3.041.916-3.041,1.984,0,1.31,1.179,1.891,3.886,2.9,3.7,1.343,5.443,3.233,5.443,6.133,0,3.448-2.707,6.378-8.456,6.378a13.923,13.923,0,0,1-5.935-1.252Z" transform="translate(393.82 5701.531)" fill="#fff"/>
  </g>
</svg>
