<?xml version="1.0" encoding="utf-8"?>
<!-- Generator: Adobe Illustrator 26.1.0, SVG Export Plug-In . SVG Version: 6.00 Build 0)  -->
<svg version="1.1" id="Camada_1" xmlns="http://www.w3.org/2000/svg" xmlns:xlink="http://www.w3.org/1999/xlink" x="0px" y="0px"
	 viewBox="0 0 102.9 36" style="enable-background:new 0 0 102.9 36;" xml:space="preserve">
<style type="text/css">
	.st0{fill:none;stroke:#FFFFFF;stroke-width:2;}
	.st1{enable-background:new    ;}
	.st2{fill:#FFFFFF;}
</style>
<g>
	<path class="st0" d="M10,1h82.9c5,0,9,4,9,9v16c0,5-4,9-9,9H10c-5,0-9-4-9-9V10C1,5,5,1,10,1z"/>
	<g class="st1">
		<path class="st2" d="M23,14.4c0,1.4-0.5,2.6-1.5,3.3s-2.4,1.2-4.2,1.2h-1.7v5.6h-1.7V10.3h3.7C21.2,10.3,23,11.7,23,14.4z
			 M15.6,17.5h1.5c1.5,0,2.5-0.2,3.2-0.7c0.7-0.5,1-1.2,1-2.3c0-0.9-0.3-1.6-0.9-2.1c-0.6-0.5-1.6-0.7-2.9-0.7h-1.9V17.5z"/>
		<path class="st2" d="M30.6,13.6c0.5,0,0.9,0,1.3,0.1l-0.2,1.5c-0.4-0.1-0.8-0.1-1.2-0.1c-0.9,0-1.6,0.4-2.2,1.1s-0.9,1.6-0.9,2.6
			v5.7h-1.6V13.8H27l0.2,2h0.1c0.4-0.7,0.9-1.2,1.4-1.6C29.3,13.8,29.9,13.6,30.6,13.6z"/>
		<path class="st2" d="M43.1,19.2c0,1.7-0.4,3.1-1.3,4.1s-2.1,1.5-3.6,1.5c-1,0-1.8-0.2-2.5-0.7s-1.3-1.1-1.7-1.9
			c-0.4-0.8-0.6-1.8-0.6-2.9c0-1.7,0.4-3.1,1.3-4.1c0.9-1,2.1-1.5,3.6-1.5c1.5,0,2.7,0.5,3.6,1.5C42.7,16.1,43.1,17.5,43.1,19.2z
			 M34.9,19.2c0,1.4,0.3,2.4,0.8,3.1s1.4,1.1,2.4,1.1c1.1,0,1.9-0.4,2.4-1.1c0.6-0.7,0.8-1.8,0.8-3.1c0-1.4-0.3-2.4-0.8-3.1
			C40,15.4,39.2,15,38.2,15c-1.1,0-1.9,0.3-2.4,1C35.2,16.8,34.9,17.8,34.9,19.2z M36.8,12.2c0.3-0.4,0.6-0.9,1-1.5s0.6-1.1,0.9-1.5
			h2v0.2c-0.3,0.4-0.7,0.9-1.3,1.6s-1.1,1.1-1.5,1.4h-1.1V12.2z"/>
		<path class="st2" d="M48.5,19.1l-3.7-5.2h1.8l2.8,4.1l2.8-4.1h1.8l-3.7,5.2l3.9,5.5h-1.8l-3-4.3l-3,4.3h-1.8L48.5,19.1z"/>
		<path class="st2" d="M56.3,10.9c0-0.4,0.1-0.6,0.3-0.8c0.2-0.2,0.4-0.3,0.7-0.3c0.3,0,0.5,0.1,0.7,0.3c0.2,0.2,0.3,0.4,0.3,0.8
			s-0.1,0.6-0.3,0.8c-0.2,0.2-0.4,0.3-0.7,0.3c-0.3,0-0.5-0.1-0.7-0.3C56.4,11.6,56.3,11.3,56.3,10.9z M58,24.5h-1.6V13.8H58V24.5z"
			/>
		<path class="st2" d="M75.1,24.5v-7c0-0.9-0.2-1.5-0.5-1.9c-0.4-0.4-0.9-0.6-1.7-0.6c-1,0-1.8,0.3-2.2,0.9
			c-0.5,0.6-0.7,1.5-0.7,2.7v6h-1.6v-7c0-0.9-0.2-1.5-0.5-1.9C67.4,15.2,66.8,15,66,15c-1,0-1.8,0.3-2.2,0.9c-0.5,0.6-0.7,1.6-0.7,3
			v5.6h-1.6V13.8h1.3l0.3,1.5h0.1c0.3-0.5,0.7-0.9,1.3-1.2s1.2-0.4,1.9-0.4c1.7,0,2.8,0.6,3.3,1.8h0.1c0.3-0.6,0.8-1,1.4-1.3
			s1.3-0.5,2.1-0.5c1.2,0,2.1,0.3,2.7,0.9c0.6,0.6,0.9,1.6,0.9,3v7H75.1z"/>
		<path class="st2" d="M89.3,19.2c0,1.7-0.4,3.1-1.3,4.1s-2.1,1.5-3.6,1.5c-1,0-1.8-0.2-2.5-0.7s-1.3-1.1-1.7-1.9
			c-0.4-0.8-0.6-1.8-0.6-2.9c0-1.7,0.4-3.1,1.3-4.1c0.9-1,2.1-1.5,3.6-1.5c1.5,0,2.7,0.5,3.6,1.5C88.9,16.1,89.3,17.5,89.3,19.2z
			 M81.2,19.2c0,1.4,0.3,2.4,0.8,3.1s1.4,1.1,2.4,1.1c1.1,0,1.9-0.4,2.4-1.1c0.6-0.7,0.8-1.8,0.8-3.1c0-1.4-0.3-2.4-0.8-3.1
			c-0.5-0.7-1.4-1.1-2.4-1.1c-1.1,0-1.9,0.3-2.4,1C81.4,16.8,81.2,17.8,81.2,19.2z"/>
	</g>
</g>
</svg>
